<svg width="45" height="69" viewBox="0 0 45 69" fill="none" xmlns="http://www.w3.org/2000/svg"><path id="alura-logo" fill-rule="evenodd" clip-rule="evenodd" d="M33.8682 34.0011C33.8053 34.401 33.6521 34.7816 33.4201 35.1145C33.188 35.4473 32.8832 35.7236 32.5283 35.9229C31.8137 36.3811 31.1885 36.6103 30.5558 36.8394C29.2085 37.3014 27.7905 37.7634 26.2906 38.2992C24.7089 38.8351 23.2909 39.371 22.0255 39.7591C20.4474 40.295 18.9476 40.7569 17.5221 41.2928C16.4497 41.7485 15.4423 42.3425 14.5261 43.0594C13.6739 43.826 12.9303 44.7038 12.3154 45.6686C11.6827 46.7404 11.2844 48.1226 11.2844 49.7339C11.2844 52.9604 12.0734 55.4144 13.6552 56.9481C15.2332 58.5631 18.1585 59.3282 22.4944 59.3282C26.9159 59.3282 29.9156 58.4855 31.5011 56.7966C33.0754 55.1076 33.8644 52.7312 33.8644 49.6637V34.0011H33.8682ZM22.4981 0C30.2394 0 35.9226 1.45983 39.5513 4.4534C43.1838 7.37306 45 11.128 45 15.5777V53.4962C45 55.03 44.6874 56.719 44.1365 58.5594C43.5783 60.4073 42.4766 62.0926 40.7386 63.6227C39.0824 65.1638 36.7935 66.4684 33.8719 67.4663C30.9503 68.4641 27.1615 69 22.5019 69C17.8496 69 14.0534 68.4641 11.1356 67.4663C8.21768 66.4684 5.92507 65.1638 4.26888 63.6227C2.72818 62.2439 1.56102 60.5029 0.874617 58.5594C0.316351 56.7226 0 55.0337 0 53.4999V47.4389C0 44.2125 0.867174 41.2189 2.60524 38.606C4.34331 35.9229 6.78852 34.0824 9.94831 32.9293C11.5263 32.3934 13.3426 31.8575 15.3933 31.1664C17.4477 30.4716 19.3383 29.7805 21.2365 29.1707C23.1346 28.5535 24.7908 27.9363 26.2087 27.3967C27.0645 27.0567 27.9336 26.751 28.814 26.4802L30.2357 25.7891C30.794 25.4823 31.3411 25.0204 31.8956 24.4069C32.4464 23.7971 32.9191 23.1059 33.3173 22.3372C33.7381 21.5048 33.9549 20.5855 33.95 19.6541V17.1964C33.9559 16.2957 33.7654 15.4043 33.3918 14.5835C33.0791 13.6596 32.4464 12.8169 31.5793 12.0519C30.7121 11.2832 29.5249 10.6697 28.1069 10.204C26.6851 9.74944 24.7945 9.5166 22.6582 9.5166C18.2367 9.5166 15.3151 10.3666 13.7371 12.1258C12.3972 13.6633 11.6082 15.5814 11.4519 17.7286C11.4519 18.1906 11.0574 18.4973 10.581 18.4973L0.952775 18.6525C0.724064 18.6535 0.504218 18.5648 0.341105 18.4056C0.177993 18.2464 0.0848217 18.0296 0.0818791 17.8025V15.5851C0.0818791 13.4304 0.480109 11.4347 1.34728 9.5166C2.21818 7.5948 3.56174 5.98714 5.37425 4.60123C7.19047 3.22271 9.56124 2.07333 12.401 1.30461C15.1662 0.380664 18.5605 0 22.5056 0H22.4981Z" fill="#98B5BE"/></svg>