<svg width="350" height="130" viewBox="0 0 350 130" fill="none" xmlns="http://www.w3.org/2000/svg"><g id="Group 3"><path id="Vector" d="M312 0H38C17.0132 0 0 17.0132 0 38V92C0 112.987 17.0132 130 38 130H312C332.987 130 350 112.987 350 92V38C350 17.0132 332.987 0 312 0Z" fill="#E9E5E2"/><path id="Copiar" d="M104.75 64.92C104.75 62.1467 105.35 59.68 106.55 57.52C107.75 55.3333 109.416 53.64 111.55 52.44C113.71 51.2133 116.15 50.6 118.87 50.6C122.203 50.6 125.056 51.48 127.43 53.24C129.803 55 131.39 57.4 132.19 60.44H124.67C124.11 59.2667 123.31 58.3733 122.27 57.76C121.256 57.1467 120.096 56.84 118.79 56.84C116.683 56.84 114.976 57.5733 113.67 59.04C112.363 60.5067 111.71 62.4667 111.71 64.92C111.71 67.3733 112.363 69.3333 113.67 70.8C114.976 72.2667 116.683 73 118.79 73C120.096 73 121.256 72.6933 122.27 72.08C123.31 71.4667 124.11 70.5733 124.67 69.4H132.19C131.39 72.44 129.803 74.84 127.43 76.6C125.056 78.3333 122.203 79.2 118.87 79.2C116.15 79.2 113.71 78.6 111.55 77.4C109.416 76.1733 107.75 74.48 106.55 72.32C105.35 70.16 104.75 67.6933 104.75 64.92ZM146.538 79.32C144.352 79.32 142.378 78.8533 140.618 77.92C138.885 76.9867 137.512 75.6533 136.498 73.92C135.512 72.1867 135.018 70.16 135.018 67.84C135.018 65.5467 135.525 63.5333 136.538 61.8C137.552 60.04 138.938 58.6933 140.698 57.76C142.458 56.8267 144.432 56.36 146.618 56.36C148.805 56.36 150.778 56.8267 152.538 57.76C154.298 58.6933 155.685 60.04 156.698 61.8C157.712 63.5333 158.218 65.5467 158.218 67.84C158.218 70.1333 157.698 72.16 156.658 73.92C155.645 75.6533 154.245 76.9867 152.458 77.92C150.698 78.8533 148.725 79.32 146.538 79.32ZM146.538 73.4C147.845 73.4 148.952 72.92 149.858 71.96C150.792 71 151.258 69.6267 151.258 67.84C151.258 66.0533 150.805 64.68 149.898 63.72C149.018 62.76 147.925 62.28 146.618 62.28C145.285 62.28 144.178 62.76 143.298 63.72C142.418 64.6533 141.978 66.0267 141.978 67.84C141.978 69.6267 142.405 71 143.258 71.96C144.138 72.92 145.232 73.4 146.538 73.4ZM168.687 59.84C169.354 58.8 170.274 57.96 171.447 57.32C172.621 56.68 173.994 56.36 175.567 56.36C177.407 56.36 179.074 56.8267 180.567 57.76C182.061 58.6933 183.234 60.0267 184.087 61.76C184.967 63.4933 185.407 65.5067 185.407 67.8C185.407 70.0933 184.967 72.12 184.087 73.88C183.234 75.6133 182.061 76.96 180.567 77.92C179.074 78.8533 177.407 79.32 175.567 79.32C174.021 79.32 172.647 79 171.447 78.36C170.274 77.72 169.354 76.8933 168.687 75.88V89.64H161.847V56.68H168.687V59.84ZM178.447 67.8C178.447 66.0933 177.967 64.76 177.007 63.8C176.074 62.8133 174.914 62.32 173.527 62.32C172.167 62.32 171.007 62.8133 170.047 63.8C169.114 64.7867 168.647 66.1333 168.647 67.84C168.647 69.5467 169.114 70.8933 170.047 71.88C171.007 72.8667 172.167 73.36 173.527 73.36C174.887 73.36 176.047 72.8667 177.007 71.88C177.967 70.8667 178.447 69.5067 178.447 67.8ZM192.436 54.36C191.236 54.36 190.249 54.0133 189.476 53.32C188.729 52.6 188.356 51.72 188.356 50.68C188.356 49.6133 188.729 48.7333 189.476 48.04C190.249 47.32 191.236 46.96 192.436 46.96C193.609 46.96 194.569 47.32 195.316 48.04C196.089 48.7333 196.476 49.6133 196.476 50.68C196.476 51.72 196.089 52.6 195.316 53.32C194.569 54.0133 193.609 54.36 192.436 54.36ZM195.836 56.68V79H188.996V56.68H195.836ZM199.433 67.8C199.433 65.5067 199.859 63.4933 200.713 61.76C201.593 60.0267 202.779 58.6933 204.273 57.76C205.766 56.8267 207.433 56.36 209.273 56.36C210.846 56.36 212.219 56.68 213.393 57.32C214.593 57.96 215.513 58.8 216.153 59.84V56.68H222.993V79H216.153V75.84C215.486 76.88 214.553 77.72 213.353 78.36C212.179 79 210.806 79.32 209.233 79.32C207.419 79.32 205.766 78.8533 204.273 77.92C202.779 76.96 201.593 75.6133 200.713 73.88C199.859 72.12 199.433 70.0933 199.433 67.8ZM216.153 67.84C216.153 66.1333 215.673 64.7867 214.713 63.8C213.779 62.8133 212.633 62.32 211.273 62.32C209.913 62.32 208.753 62.8133 207.793 63.8C206.859 64.76 206.393 66.0933 206.393 67.8C206.393 69.5067 206.859 70.8667 207.793 71.88C208.753 72.8667 209.913 73.36 211.273 73.36C212.633 73.36 213.779 72.8667 214.713 71.88C215.673 70.8933 216.153 69.5467 216.153 67.84ZM234.781 60.4C235.581 59.1733 236.581 58.2133 237.781 57.52C238.981 56.8 240.314 56.44 241.781 56.44V63.68H239.901C238.194 63.68 236.914 64.0533 236.061 64.8C235.208 65.52 234.781 66.8 234.781 68.64V79H227.941V56.68H234.781V60.4Z" fill="#98B5BE"/></g></svg>